<svg xmlns="http://www.w3.org/2000/svg" viewBox="0 0 220 48" fill="none">
  <!-- Icon -->
  <rect x="4" y="8" width="32" height="32" rx="8" fill="#0F172A"/>
  <path d="M12 18h10a2 2 0 0 1 2 2v0a2 2 0 0 1-2 2H12" stroke="#38BDF8" stroke-width="2.5" stroke-linecap="round"/>
  <path d="M12 24h12a2 2 0 0 1 2 2v0a2 2 0 0 1-2 2H12" stroke="#818CF8" stroke-width="2.5" stroke-linecap="round"/>
  <path d="M12 30h8a2 2 0 0 1 2 2v0a2 2 0 0 1-2 2H12" stroke="#38BDF8" stroke-width="2.5" stroke-linecap="round" opacity="0.7"/>
  <path d="M26 16l3 3-3 3" stroke="#F59E0B" stroke-width="2" stroke-linecap="round" stroke-linejoin="round"/>
  <!-- Wordmark -->
  <text x="44" y="31" font-family="system-ui, -apple-system, 'Segoe UI', sans-serif" font-size="18" font-weight="700" fill="#0F172A">
    Content Command
  </text>
</svg>
