<svg xmlns="http://www.w3.org/2000/svg" viewBox="0 0 32 32" fill="none">
  <rect width="32" height="32" rx="8" fill="#0F172A"/>
  <path d="M8 10h10a2 2 0 0 1 2 2v0a2 2 0 0 1-2 2H8" stroke="#38BDF8" stroke-width="2.5" stroke-linecap="round"/>
  <path d="M8 16h12a2 2 0 0 1 2 2v0a2 2 0 0 1-2 2H8" stroke="#818CF8" stroke-width="2.5" stroke-linecap="round"/>
  <path d="M8 22h8a2 2 0 0 1 2 2v0a2 2 0 0 1-2 2H8" stroke="#38BDF8" stroke-width="2.5" stroke-linecap="round" opacity="0.7"/>
  <path d="M22 8l3 3-3 3" stroke="#F59E0B" stroke-width="2" stroke-linecap="round" stroke-linejoin="round"/>
</svg>
